<svg xmlns="http://www.w3.org/2000/svg" viewBox="0 0 240 190" role="img" aria-label="예약 제어">
  <defs>
    <linearGradient id="clock" x1="69" y1="15" x2="138" y2="86"><stop stop-color="#FF9900"/><stop offset="1" stop-color="#FF5A00"/></linearGradient>
    <linearGradient id="car" x1="70" y1="116" x2="184" y2="160"><stop stop-color="#fff"/><stop offset="1" stop-color="#EEF2F6"/></linearGradient>
    <filter id="s" x="-20%" y="-20%" width="150%" height="150%"><feDropShadow dx="0" dy="9" stdDeviation="8" flood-color="#091E3F" flood-opacity=".14"/></filter>
  </defs>
  <ellipse cx="120" cy="170" rx="82" ry="12" fill="#FFE4A8" opacity=".72"/>
  <g filter="url(#s)">
    <circle cx="102" cy="54" r="45" fill="#fff" stroke="url(#clock)" stroke-width="8"/>
    <path d="M102 27v29l23 15" stroke="#1B2432" stroke-width="6" stroke-linecap="round" stroke-linejoin="round"/>
    <path d="M102 14v10M102 84v10M62 54H52M152 54h-10" stroke="#FF7A00" stroke-width="5" stroke-linecap="round"/>
    <rect x="159" y="54" width="43" height="36" rx="8" fill="#172436"/>
    <path d="M168 54V42c0-17 25-17 25 0v12" fill="none" stroke="#172436" stroke-width="8" stroke-linecap="round"/>
    <circle cx="181" cy="70" r="4" fill="#fff"/><rect x="178" y="73" width="6" height="10" rx="3" fill="#fff"/>
    <path d="M37 115l-16-14M44 134H24M195 115l16-14M188 134h20" stroke="#FF7A00" stroke-width="7" stroke-linecap="round"/>
    <path d="M57 126c9-25 34-36 70-33 29 2 47 20 53 43l-8 21H59l-12-18c-3-5 1-11 10-13z" fill="url(#car)"/>
    <path d="M80 105c12-9 31-11 55-7 11 5 20 15 25 28H68c3-8 7-15 12-21z" fill="#182333"/>
    <path d="M107 98v31" stroke="#fff" stroke-width="5" opacity=".9"/>
    <path d="M56 132h29" stroke="#FF7A00" stroke-width="8" stroke-linecap="round"/>
    <path d="M133 134h31" stroke="#142031" stroke-width="6" stroke-linecap="round"/>
    <circle cx="80" cy="156" r="15" fill="#142031"/><circle cx="80" cy="156" r="7" fill="#F4F6F8"/>
    <circle cx="152" cy="156" r="15" fill="#142031"/><circle cx="152" cy="156" r="7" fill="#F4F6F8"/>
    <path d="M162 123c11 2 16 8 15 15-10-1-18-4-25-10z" fill="#fff"/>
  </g>
</svg>
