<svg xmlns="http://www.w3.org/2000/svg" viewBox="0 0 240 190" role="img" aria-label="완료 현황">
  <defs>
    <linearGradient id="check" x1="145" y1="91" x2="208" y2="158"><stop stop-color="#FF7A00"/><stop offset="1" stop-color="#E91C50"/></linearGradient>
    <linearGradient id="car" x1="55" y1="116" x2="166" y2="160"><stop stop-color="#fff"/><stop offset="1" stop-color="#EEF2F6"/></linearGradient>
    <filter id="s" x="-20%" y="-20%" width="150%" height="150%"><feDropShadow dx="0" dy="9" stdDeviation="8" flood-color="#091E3F" flood-opacity=".14"/></filter>
  </defs>
  <ellipse cx="120" cy="170" rx="84" ry="12" fill="#FFD9E4" opacity=".72"/>
  <g filter="url(#s)">
    <path d="M83 17h72l30 30v92H83z" fill="#fff" stroke="#C7C7C7" stroke-width="6" stroke-linejoin="round"/>
    <path d="M155 17v30h30" fill="#ECEFF3" stroke="#C7C7C7" stroke-width="6" stroke-linejoin="round"/>
    <path d="M103 62h35M103 88h52M103 114h38" stroke="#C8C4BC" stroke-width="7" stroke-linecap="round"/>
    <path d="M64 43l4 12 12 4-12 4-4 12-4-12-12-4 12-4z" fill="#FF8AA0" opacity=".85"/>
    <path d="M199 54l3 9 9 3-9 3-3 9-3-9-9-3 9-3z" fill="#FFB0BE"/>
    <circle cx="172" cy="126" r="40" fill="url(#check)"/>
    <path d="M154 125l14 14 27-32" fill="none" stroke="#fff" stroke-width="10" stroke-linecap="round" stroke-linejoin="round"/>
    <path d="M44 126c9-25 34-36 70-33 29 2 47 20 53 43l-8 21H46l-12-18c-3-5 1-11 10-13z" fill="url(#car)"/>
    <path d="M67 105c12-9 31-11 55-7 11 5 20 15 25 28H55c3-8 7-15 12-21z" fill="#182333"/>
    <path d="M94 98v31" stroke="#fff" stroke-width="5" opacity=".9"/>
    <path d="M43 132h29" stroke="#FF7A00" stroke-width="8" stroke-linecap="round"/>
    <path d="M120 134h31" stroke="#142031" stroke-width="6" stroke-linecap="round"/>
    <circle cx="67" cy="156" r="15" fill="#142031"/><circle cx="67" cy="156" r="7" fill="#F4F6F8"/>
    <circle cx="139" cy="156" r="15" fill="#142031"/><circle cx="139" cy="156" r="7" fill="#F4F6F8"/>
    <path d="M149 123c11 2 16 8 15 15-10-1-18-4-25-10z" fill="#fff"/>
  </g>
</svg>
