<svg xmlns="http://www.w3.org/2000/svg" viewBox="0 0 240 190" role="img" aria-label="세차 오더">
  <defs>
    <linearGradient id="orange" x1="42" y1="24" x2="142" y2="130"><stop stop-color="#FFC400"/><stop offset="1" stop-color="#FF6A00"/></linearGradient>
    <linearGradient id="car" x1="86" y1="112" x2="185" y2="160"><stop stop-color="#fff"/><stop offset="1" stop-color="#EEF2F6"/></linearGradient>
    <filter id="s" x="-20%" y="-20%" width="150%" height="150%"><feDropShadow dx="0" dy="9" stdDeviation="8" flood-color="#091E3F" flood-opacity=".14"/></filter>
  </defs>
  <ellipse cx="120" cy="170" rx="83" ry="12" fill="#FFE5AD" opacity=".75"/>
  <g filter="url(#s)">
    <rect x="36" y="22" width="86" height="128" rx="16" fill="#fff" stroke="#7B7F86" stroke-width="6"/>
    <rect x="58" y="9" width="44" height="28" rx="9" fill="url(#orange)"/>
    <circle cx="80" cy="13" r="8" fill="#fff3c8"/>
    <path d="M55 58l10 10 20-26" fill="none" stroke="#FF7A00" stroke-width="7" stroke-linecap="round" stroke-linejoin="round"/>
    <path d="M55 88l10 10 20-26" fill="none" stroke="#FF7A00" stroke-width="7" stroke-linecap="round" stroke-linejoin="round"/>
    <path d="M55 118l10 10 20-26" fill="none" stroke="#FF7A00" stroke-width="7" stroke-linecap="round" stroke-linejoin="round"/>
    <path d="M96 57h31M96 87h31M96 117h24" stroke="#C8C4BC" stroke-width="7" stroke-linecap="round"/>
    <path d="M178 51l5 14 14 5-14 5-5 14-5-14-14-5 14-5z" fill="#FFC94A"/>
    <path d="M202 85l3 9 9 3-9 3-3 9-3-9-9-3 9-3z" fill="#FFD973"/>
    <path d="M89 126c9-25 34-36 70-33 29 2 47 20 53 43l-8 21H91l-12-18c-3-5 1-11 10-13z" fill="url(#car)"/>
    <path d="M112 105c12-9 31-11 55-7 11 5 20 15 25 28h-92c3-8 7-15 12-21z" fill="#182333"/>
    <path d="M139 98v31" stroke="#fff" stroke-width="5" opacity=".9"/>
    <path d="M88 132h29" stroke="#FF7A00" stroke-width="8" stroke-linecap="round"/>
    <path d="M165 134h31" stroke="#142031" stroke-width="6" stroke-linecap="round"/>
    <circle cx="112" cy="156" r="15" fill="#142031"/><circle cx="112" cy="156" r="7" fill="#F4F6F8"/>
    <circle cx="184" cy="156" r="15" fill="#142031"/><circle cx="184" cy="156" r="7" fill="#F4F6F8"/>
    <path d="M194 123c11 2 16 8 15 15-10-1-18-4-25-10z" fill="#fff"/>
  </g>
</svg>
